<?xml version="1.0" encoding="utf-8"?>
<!-- Generator: Adobe Illustrator 23.0.3, SVG Export Plug-In . SVG Version: 6.00 Build 0)  -->
<svg version="1.1" id="Layer_1" xmlns="http://www.w3.org/2000/svg" xmlns:xlink="http://www.w3.org/1999/xlink" x="0px" y="0px"
	 width="283.6px" height="57.8px" viewBox="0 0 283.6 57.8" style="enable-background:new 0 0 283.6 57.8;" xml:space="preserve">
<style type="text/css">
	.st0{fill:#FFFFFF;}
</style>
<path class="st0" d="M70.2,31.8l-5.4-18.3c-0.7-2.4-3.3-4.7-5.8-5.2L24.2,0.9c-3.7-0.8-6.6,0.8-6.5,3.7l0.2,2.5l5.8,1l-0.2-2.4
	c0-0.5,0.4-0.8,1.1-0.7L60,11.8c0.5,0.1,0.9,0.5,1,0.9l5.1,18.7c0.1,0.5-0.1,0.9-0.6,0.9l-1.1-0.1l1.2,4.5l1.2,0.1
	C69.6,37,71.1,34.7,70.2,31.8z"/>
<g>
	<path class="st0" d="M89.6,39.3c0.2,1.3,0.6,2.3,1.1,3c1,1.2,2.8,1.8,5.2,1.8c1.5,0,2.7-0.2,3.6-0.5c1.7-0.6,2.6-1.7,2.6-3.4
		c0-1-0.4-1.7-1.3-2.2c-0.9-0.5-2.2-1-4.1-1.4l-3.2-0.7c-3.1-0.7-5.3-1.4-6.4-2.2c-2-1.4-3-3.5-3-6.3c0-2.6,1-4.8,2.9-6.5
		c1.9-1.7,4.8-2.6,8.5-2.6c3.1,0,5.8,0.8,8,2.5c2.2,1.6,3.4,4,3.5,7.1h-5.9c-0.1-1.8-0.9-3-2.4-3.8c-1-0.5-2.2-0.7-3.6-0.7
		c-1.6,0-2.9,0.3-3.9,1c-1,0.6-1.4,1.5-1.4,2.7c0,1,0.5,1.8,1.4,2.3c0.6,0.3,1.9,0.7,3.9,1.2l5.1,1.2c2.3,0.5,3.9,1.2,5.1,2.1
		c1.7,1.4,2.6,3.4,2.6,6c0,2.7-1,4.9-3.1,6.7c-2.1,1.8-5,2.7-8.8,2.7c-3.9,0-6.9-0.9-9.1-2.6c-2.2-1.7-3.3-4.1-3.3-7.2H89.6z"/>
	<path class="st0" d="M120.5,35.2c1.1-0.1,1.8-0.3,2.3-0.5c0.8-0.3,1.2-0.9,1.2-1.6c0-0.9-0.3-1.5-0.9-1.8c-0.6-0.3-1.5-0.5-2.8-0.5
		c-1.4,0-2.3,0.3-2.9,1c-0.4,0.5-0.7,1.2-0.8,2h-5.5c0.1-1.9,0.7-3.5,1.6-4.7c1.5-1.9,4.1-2.9,7.8-2.9c2.4,0,4.5,0.5,6.4,1.4
		c1.9,0.9,2.8,2.7,2.8,5.3v9.9c0,0.7,0,1.5,0,2.5c0,0.7,0.2,1.2,0.3,1.5c0.2,0.3,0.5,0.5,0.8,0.7v0.8h-6.2c-0.2-0.4-0.3-0.8-0.4-1.2
		c-0.1-0.4-0.1-0.8-0.2-1.3c-0.8,0.8-1.7,1.6-2.7,2.2c-1.2,0.7-2.6,1.1-4.2,1.1c-2,0-3.6-0.6-4.9-1.7s-1.9-2.7-1.9-4.8
		c0-2.7,1-4.6,3.1-5.8c1.1-0.6,2.8-1.1,5-1.4L120.5,35.2z M124,37.8c-0.4,0.2-0.7,0.4-1.1,0.5c-0.4,0.1-0.9,0.3-1.5,0.4l-1.3,0.2
		c-1.2,0.2-2.1,0.5-2.6,0.8c-0.9,0.5-1.3,1.3-1.3,2.4c0,1,0.3,1.7,0.8,2.1c0.5,0.4,1.2,0.6,2,0.6c1.2,0,2.4-0.4,3.4-1.1
		c1-0.7,1.6-2,1.6-3.9C124,39.9,124,37.8,124,37.8z"/>
	<path class="st0" d="M143.6,18.8c0.3,0,0.7,0,1.2,0.1v4.6c-0.3,0-0.9-0.1-1.6-0.1c-0.7,0-1.3,0.1-1.6,0.5c-0.3,0.4-0.4,0.7-0.4,1.2
		c0,0.4,0,1,0,1.8h3.7v4h-3.7v17.5h-5.6V30.9h-3.2v-4h3.1v-1.4c0-2.3,0.4-3.9,1.2-4.8c0.8-1.3,2.8-1.9,5.9-1.9
		C142.9,18.7,143.3,18.7,143.6,18.8z"/>
	<path class="st0" d="M162.3,27.1c1.5,0.7,2.8,1.7,3.7,3.2c0.9,1.3,1.5,2.8,1.7,4.5c0.2,1,0.2,2.4,0.2,4.3h-15.8
		c0.1,2.2,0.8,3.7,2.3,4.6c0.9,0.5,1.9,0.8,3.1,0.8c1.3,0,2.3-0.3,3.1-1c0.4-0.4,0.8-0.9,1.2-1.5h5.8c-0.2,1.3-0.9,2.6-2.1,3.9
		c-1.9,2.1-4.7,3.2-8.2,3.2c-2.9,0-5.4-0.9-7.6-2.7c-2.2-1.8-3.3-4.7-3.3-8.7c0-3.8,1-6.6,3-8.6c2-2,4.6-3,7.8-3
		C159.1,26.1,160.8,26.4,162.3,27.1z M153.8,32c-0.8,0.8-1.3,1.9-1.5,3.4h9.8c-0.1-1.5-0.6-2.6-1.5-3.4c-0.9-0.8-2-1.2-3.4-1.2
		C155.7,30.8,154.6,31.2,153.8,32z"/>
	<path class="st0" d="M168.6,30.9v-4h3v-6h5.6v6h3.5v4h-3.5v11.5c0,0.9,0.1,1.4,0.3,1.7c0.2,0.2,0.9,0.3,2.1,0.3c0.2,0,0.4,0,0.5,0
		c0.2,0,0.4,0,0.6,0v4.2l-2.7,0.1c-2.7,0.1-4.5-0.4-5.5-1.4c-0.6-0.6-1-1.7-1-3V30.9H168.6z"/>
	<path class="st0" d="M185.2,52.5l0.7,0c0.6,0,1.1,0,1.6-0.1c0.5-0.1,0.9-0.2,1.3-0.5c0.3-0.2,0.6-0.7,0.9-1.4
		c0.3-0.7,0.4-1.2,0.4-1.3l-8-22.6h6.3l4.7,16l4.5-16h6L196.2,48c-1.4,4.1-2.6,6.7-3.4,7.6c-0.8,1-2.5,1.5-5,1.5c-0.5,0-0.9,0-1.2,0
		c-0.3,0-0.8,0-1.4-0.1L185.2,52.5L185.2,52.5z"/>
	<path class="st0" d="M221.1,26.8c1.1,0.5,2,1.2,2.7,2.1c0.6,0.8,1,1.6,1.1,2.5s0.2,2.3,0.2,4.2v12.7h-5.8V35.2
		c0-1.2-0.2-2.1-0.6-2.8c-0.5-1-1.5-1.5-2.9-1.5c-1.5,0-2.6,0.5-3.4,1.5c-0.8,1-1.2,2.4-1.2,4.3v11.7h-5.7V19.1h5.7v10.3
		c0.8-1.3,1.8-2.1,2.8-2.6c1.1-0.5,2.2-0.7,3.4-0.7C218.8,26.1,220,26.3,221.1,26.8z"/>
	<path class="st0" d="M233.9,26.7v13.1c0,1.2,0.1,2.2,0.4,2.8c0.5,1.1,1.5,1.7,3,1.7c1.9,0,3.2-0.8,4-2.3c0.4-0.8,0.6-2,0.6-3.4
		V26.7h5.7v21.7h-5.5v-3.1c-0.1,0.1-0.2,0.3-0.4,0.6c-0.2,0.3-0.5,0.6-0.8,0.9c-0.9,0.8-1.7,1.3-2.6,1.6c-0.8,0.3-1.8,0.4-2.9,0.4
		c-3.2,0-5.4-1.2-6.5-3.5c-0.6-1.3-0.9-3.1-0.9-5.6V26.7H233.9z"/>
	<path class="st0" d="M269.5,29.3c1.6,2.1,2.4,4.7,2.4,8c0,3.4-0.8,6.2-2.4,8.4c-1.6,2.2-3.8,3.3-6.7,3.3c-1.8,0-3.2-0.4-4.3-1.1
		c-0.7-0.4-1.4-1.2-2.1-2.2v2.7h-5.6V19.1h5.7v10.4c0.7-1,1.5-1.8,2.4-2.3c1-0.7,2.3-1,3.9-1C265.6,26.2,267.8,27.2,269.5,29.3z
		 M264.7,42.5c0.8-1.2,1.2-2.7,1.2-4.7c0-1.5-0.2-2.8-0.6-3.8c-0.8-1.9-2.2-2.9-4.2-2.9c-2.1,0-3.5,0.9-4.3,2.8
		c-0.4,1-0.6,2.3-0.6,3.9c0,1.9,0.4,3.4,1.2,4.6c0.8,1.2,2.1,1.8,3.8,1.8C262.8,44.3,263.9,43.7,264.7,42.5z"/>
	<g>
		<path class="st0" d="M276.7,23v0.6h-1.1v3h-0.8v-3h-1.1V23H276.7z"/>
		<path class="st0" d="M279.6,23h1.1v3.7H280v-2.5c0-0.1,0-0.2,0-0.3c0-0.1,0-0.2,0-0.3l-0.7,3.1h-0.7l-0.7-3.1c0,0.1,0,0.2,0,0.3
			c0,0.1,0,0.2,0,0.3v2.5h-0.7V23h1.1l0.7,2.9L279.6,23z"/>
	</g>
</g>
<g>
	<g>
		<polygon class="st0" points="27.8,39 40.8,30.2 27.3,22.2 		"/>
	</g>
	<g>
		<path class="st0" d="M65,44l-5.8-22.6c-0.7-2.9-3.8-5.6-6.9-6.1L9.2,8c-4.6-0.8-8.6,1.4-8.6,5v28.9c0,4.8,4.7,8.8,10.3,8.8h49.7
			C64,50.6,66,47.6,65,44z M43.6,31.2l-16.3,11c-0.2,0.1-0.4,0.2-0.6,0.2c-0.2,0-0.4,0-0.6-0.1c-0.4-0.2-0.6-0.6-0.6-1l-0.6-21.1
			c0-0.4,0.2-0.8,0.6-1c0.4-0.2,0.8-0.2,1.2,0l16.9,10.1c0.3,0.2,0.6,0.6,0.6,1S44,30.9,43.6,31.2z"/>
	</g>
</g>
</svg>
