<svg xmlns="http://www.w3.org/2000/svg" width="96.17mm" height="20.39mm" viewBox="0 0 272.6 57.8"><title>safetyhub-logo-primary-mono-inverse</title><path d="M64.87,13.48a8.28,8.28,0,0,0-5.8-5.22L24.19.91c-3.69-.77-6.64.84-6.47,3.69l.15,2.51,5.84,1-.22-2.41c0-.5.45-.79,1.1-.67L60,11.84a1.43,1.43,0,0,1,1,.92L66.2,31.47c.14.51-.14.89-.63.85l-1.13-.09,1.16,4.54,1.19.07c2.78.17,4.28-2.12,3.43-5Z" fill="#fff"/><path d="M105.48,33.79a13.28,13.28,0,0,0-5.07-2.12l-5.15-1.22a17.83,17.83,0,0,1-3.89-1.21,2.52,2.52,0,0,1-1.43-2.35,3,3,0,0,1,1.45-2.66,6.91,6.91,0,0,1,3.87-1,8.1,8.1,0,0,1,3.65.74,4.19,4.19,0,0,1,2.37,3.76h5.89a8.72,8.72,0,0,0-3.48-7.13,13,13,0,0,0-8-2.46q-5.62,0-8.52,2.61a8.41,8.41,0,0,0-2.9,6.54q0,4.32,3,6.34a19.68,19.68,0,0,0,6.43,2.25l3.17.7A13.93,13.93,0,0,1,100.91,38a2.5,2.5,0,0,1,1.28,2.25,3.41,3.41,0,0,1-2.62,3.4,11.16,11.16,0,0,1-3.59.48c-2.47,0-4.2-.61-5.22-1.81a6,6,0,0,1-1.12-3H83.8a8.65,8.65,0,0,0,3.31,7.19q3.31,2.63,9.11,2.62T105,46.45a8.41,8.41,0,0,0,3.11-6.67A7.18,7.18,0,0,0,105.48,33.79Z" fill="#fff"/><path d="M130,46.86a3.08,3.08,0,0,1-.34-1.51c0-1,0-1.82,0-2.51V32.9q0-3.91-2.78-5.33a13.81,13.81,0,0,0-6.35-1.41q-5.49,0-7.75,2.86a8.34,8.34,0,0,0-1.6,4.67h5.47a4.18,4.18,0,0,1,.81-2,3.57,3.57,0,0,1,2.88-1,5.87,5.87,0,0,1,2.75.51,1.9,1.9,0,0,1,.94,1.84,1.71,1.71,0,0,1-1.22,1.61,9.2,9.2,0,0,1-2.26.5l-2,.23a13.93,13.93,0,0,0-5,1.4,6.16,6.16,0,0,0-3.1,5.78,6,6,0,0,0,1.93,4.77A7.16,7.16,0,0,0,117.29,49,8.15,8.15,0,0,0,121.45,48a11.46,11.46,0,0,0,2.72-2.16c0,.49.09.93.16,1.31a6.68,6.68,0,0,0,.36,1.23h6.16v-.83A1.94,1.94,0,0,1,130,46.86Zm-6-6.94c0,1.9-.58,3.2-1.62,3.92a6,6,0,0,1-3.43,1.07,3.12,3.12,0,0,1-2-.64,2.54,2.54,0,0,1-.81-2.1,2.59,2.59,0,0,1,1.33-2.41,8.9,8.9,0,0,1,2.61-.78l1.29-.23a9.09,9.09,0,0,0,1.52-.39,6,6,0,0,0,1.1-.55Z" fill="#fff"/><path d="M141.18,25a1.82,1.82,0,0,1,.42-1.16,1.86,1.86,0,0,1,1.55-.5c.75,0,1.29.05,1.61.09V18.86l-1.2-.09c-.29,0-.61,0-1,0-3.14,0-5.13.65-6,2-.78.87-1.17,2.47-1.17,4.79v1.39h-3.11v4h3.19V48.35h5.63V30.87h3.72v-4h-3.72Z" fill="#fff"/><path d="M166,30.32a8.78,8.78,0,0,0-3.75-3.21,12.43,12.43,0,0,0-5.09-1,10.47,10.47,0,0,0-7.76,3q-3,3-3,8.64,0,6,3.3,8.68a11.84,11.84,0,0,0,7.64,2.67c3.5,0,6.21-1.06,8.16-3.16a7.09,7.09,0,0,0,2.1-3.92h-5.79a4.9,4.9,0,0,1-1.17,1.49,4.78,4.78,0,0,1-3.14,1,5.81,5.81,0,0,1-3.13-.81c-1.42-.88-2.18-2.4-2.27-4.58h15.79a28,28,0,0,0-.18-4.3A10.72,10.72,0,0,0,166,30.32Zm-13.74,5A5.93,5.93,0,0,1,153.8,32a4.49,4.49,0,0,1,3.39-1.24,5,5,0,0,1,3.36,1.17,4.73,4.73,0,0,1,1.51,3.43Z" fill="#fff"/><path d="M177.22,20.83h-5.61v6h-3v4h3V44.26a4.12,4.12,0,0,0,.95,3q1.47,1.53,5.49,1.39l2.69-.1V44.32l-.57,0-.55,0a3.73,3.73,0,0,1-2.07-.33,2.65,2.65,0,0,1-.33-1.66V30.91h3.52v-4h-3.52Z" fill="#fff"/><path d="M193.18,42.66l-4.74-16h-6.3l8,22.64a3.42,3.42,0,0,1-.36,1.31,3,3,0,0,1-.93,1.41,2.87,2.87,0,0,1-1.27.46,8.34,8.34,0,0,1-1.59.06l-.72,0V57c.61,0,1.07.07,1.37.07h1.22q3.77,0,5-1.48T196.25,48l7.43-21.32h-6Z" fill="#fff"/><path d="M223.74,28.92a6.46,6.46,0,0,0-2.69-2.13,9.25,9.25,0,0,0-3.63-.69,8.13,8.13,0,0,0-3.4.74,7,7,0,0,0-2.84,2.64V19.14h-5.67V48.35h5.67V36.6a7,7,0,0,1,1.16-4.29,4,4,0,0,1,3.38-1.5,3,3,0,0,1,2.92,1.51,5.8,5.8,0,0,1,.6,2.83v13.2H225V35.61a31.63,31.63,0,0,0-.19-4.19A5.86,5.86,0,0,0,223.74,28.92Z" fill="#fff"/><path d="M241.9,38.47a8.54,8.54,0,0,1-.55,3.36,4,4,0,0,1-4,2.35,3,3,0,0,1-3-1.65,7,7,0,0,1-.43-2.79V26.67h-5.81V39.74a13.3,13.3,0,0,0,.93,5.63q1.66,3.47,6.47,3.46a8.71,8.71,0,0,0,2.9-.44A7.77,7.77,0,0,0,241,46.76a3.92,3.92,0,0,0,.75-.87l.4-.6v3.06h5.51V26.67H241.9Z" fill="#fff"/><path d="M269.46,29.28a8.1,8.1,0,0,0-6.74-3.08,7.1,7.1,0,0,0-3.92,1,8.26,8.26,0,0,0-2.39,2.31V19.08h-5.66V48.35h5.58V45.63a8.82,8.82,0,0,0,2.12,2.23,8.73,8.73,0,0,0,11-2.25,14,14,0,0,0,2.4-8.38A12.46,12.46,0,0,0,269.46,29.28Zm-4.74,13.21a3.94,3.94,0,0,1-3.43,1.77,4.27,4.27,0,0,1-3.79-1.83,8,8,0,0,1-1.25-4.62,10.47,10.47,0,0,1,.61-3.86,4.24,4.24,0,0,1,4.27-2.8A4.19,4.19,0,0,1,265.34,34a10.45,10.45,0,0,1,.6,3.82A8.1,8.1,0,0,1,264.72,42.49Z" fill="#fff"/><path d="M59.22,21.42a9.11,9.11,0,0,0-6.86-6.14L9.23,8C4.59,7.17.68,9.34.68,12.93V41.82c0,4.76,4.7,8.77,10.26,8.77H60.6c3.42,0,5.35-3,4.43-6.6ZM43.65,31.16l-16.3,11a1.2,1.2,0,0,1-.63.2,1.18,1.18,0,0,1-1.22-1.14l-.59-21.09a1.17,1.17,0,0,1,.59-1.05,1.22,1.22,0,0,1,1.21,0L43.59,29.18a1.17,1.17,0,0,1,.57,1A1.19,1.19,0,0,1,43.65,31.16Z" fill="#fff"/><polygon points="27.81 39.02 40.79 30.25 27.34 22.22 27.81 39.02" fill="#fff"/></svg>